# xmcd
#
# Track frame offsets: 
#        150
#        27267
#        63093
#        101413
#        133433
#        167594
#        200236
#
# Disc length: 3234 seconds
#
# Revision: 0
# Processed by: cddbd v1.5.2PL0 Copyright (c) Steve Scherf et al.
# Submitted via: ExactAudioCopy v0.99pb3
#
DISCID=600ca007
DTITLE=Paul Green and Straight Shot - Live from the Sunbanks Blues Fes
DTITLE=tival
DYEAR=2003
DGENRE=Blues
TTITLE0=Don't Start Me Talking
TTITLE1=Leaving Trunk
TTITLE2=Cold Feeling
TTITLE3=Mellow Down Easy
TTITLE4=Body and Fender Man
TTITLE5=Commit a Crime
TTITLE6=Stop Right Now
EXTD=
EXTT0=
EXTT1=
EXTT2=
EXTT3=
EXTT4=
EXTT5=
EXTT6=
PLAYORDER=
